<?xml version="1.0" encoding="UTF-8" standalone="no"?>
<!-- Generator: Adobe Illustrator 18.0.0, SVG Export Plug-In . SVG Version: 6.00 Build 0)  -->

<svg
   xmlns:dc="http://purl.org/dc/elements/1.1/"
   xmlns:cc="http://creativecommons.org/ns#"
   xmlns:rdf="http://www.w3.org/1999/02/22-rdf-syntax-ns#"
   xmlns:svg="http://www.w3.org/2000/svg"
   xmlns="http://www.w3.org/2000/svg"
   xmlns:sodipodi="http://sodipodi.sourceforge.net/DTD/sodipodi-0.dtd"
   xmlns:inkscape="http://www.inkscape.org/namespaces/inkscape"
   version="1.1"
   id="Capa_1"
   x="0px"
   y="0px"
   viewBox="0 0 461.256 461.256"
   style="enable-background:new 0 0 461.256 461.256;"
   xml:space="preserve"
   inkscape:version="0.91 r13725"
   sodipodi:docname="computer.svg"><metadata
     id="metadata39"><rdf:RDF><cc:Work
         rdf:about=""><dc:format>image/svg+xml</dc:format><dc:type
           rdf:resource="http://purl.org/dc/dcmitype/StillImage" /></cc:Work></rdf:RDF></metadata><defs
     id="defs37" /><sodipodi:namedview
     pagecolor="#ffffff"
     bordercolor="#666666"
     borderopacity="1"
     objecttolerance="10"
     gridtolerance="10"
     guidetolerance="10"
     inkscape:pageopacity="0"
     inkscape:pageshadow="2"
     inkscape:window-width="1003"
     inkscape:window-height="988"
     id="namedview35"
     showgrid="false"
     inkscape:zoom="0.51164645"
     inkscape:cx="230.62801"
     inkscape:cy="230.62801"
     inkscape:window-x="0"
     inkscape:window-y="40"
     inkscape:window-maximized="0"
     inkscape:current-layer="Capa_1" /><path
     d="M356.292,303.221c-3.351-5.73-8.732-9.813-15.154-11.496c-4.051-1.061-8.209-1.085-12.166-0.119l0.961-3.504  c1.756-6.402,0.914-13.105-2.371-18.874c-3.285-5.769-8.621-9.912-15.023-11.668c-0.719-0.197-1.438-0.359-2.158-0.49v-55.878  c0-34.511-26.401-62.965-60.065-66.243v-32.812c0-14.755-12.004-26.758-26.758-26.758h-95.244c-7.587,0-13.759-6.172-13.759-13.758  c0-7.586,6.172-13.758,13.759-13.758h196.93C339.996,47.863,352,35.86,352,21.105V6.5c0-3.59-2.91-6.5-6.5-6.5S339,2.91,339,6.5  v14.605c0,7.586-6.172,13.758-13.758,13.758h-196.93c-14.755,0-26.759,12.004-26.759,26.758c0,14.754,12.004,26.758,26.759,26.758  h95.244c7.586,0,13.758,6.172,13.758,13.758v32.812c-33.665,3.278-60.065,31.733-60.065,66.243v95.435  c-11.23,2.99-19.53,13.243-19.53,25.402v64.085c0,34.709,24.646,65.115,58.604,72.298c0.454,0.096,0.906,0.142,1.353,0.142  c3.006,0,5.705-2.097,6.353-5.156c0.743-3.512-1.502-6.962-5.015-7.705c-27.983-5.919-48.295-30.976-48.295-59.579V322.03  c0-7.326,5.96-13.286,13.286-13.286s13.286,5.96,13.286,13.286v50.879c0,3.59,2.91,6.5,6.5,6.5s6.5-2.91,6.5-6.5v-175.6  c0-6.536,5.317-11.853,11.854-11.853c6.535,0,11.853,5.317,11.853,11.853v120.184c0,3.59,2.91,6.5,6.5,6.5s6.5-2.91,6.5-6.5V197.309  v-8.129c0-6.536,5.317-11.853,11.853-11.853c6.536,0,11.854,5.317,11.854,11.853v127.832c0,3.255,2.407,6.008,5.633,6.442  c3.229,0.438,6.275-1.584,7.136-4.723l11.063-40.338c1.729-6.302,8.258-10.027,14.566-8.296c3.053,0.837,5.598,2.814,7.164,5.565  c1.567,2.751,1.969,5.948,1.131,9.001l-13.095,47.747c-0.949,3.462,1.087,7.038,4.55,7.988c0.575,0.158,1.153,0.233,1.723,0.233  c2.855,0,5.473-1.896,6.265-4.782c0,0,6.392-22.541,6.535-23.087c0.802-3.062,2.749-5.629,5.481-7.227  c2.733-1.598,5.926-2.037,8.988-1.234c3.063,0.802,5.629,2.75,7.228,5.482c1.598,2.733,2.036,5.925,1.233,8.988l-22.307,82.815  c-5.126,18.498-15.201,35.252-29.137,48.45c-2.606,2.469-2.718,6.583-0.25,9.189c1.278,1.35,2.998,2.03,4.721,2.03  c1.604,0,3.212-0.59,4.469-1.781c15.652-14.824,26.968-33.641,32.725-54.418l22.355-82.991  C360.563,315.644,359.644,308.952,356.292,303.221z M190.249,296.5v-71.443h7.042v74.306  C195.122,298.087,192.756,297.113,190.249,296.5z M222.145,172.456c-13.704,0-24.854,11.149-24.854,24.853v14.748h-7.042v-10.864  c0-27.334,20.586-49.937,47.065-53.157c0,0,0.107,29.149,0,29.346C233.171,174.29,227.701,172.456,222.145,172.456z M258.85,164.327  c-2.997,0-5.872,0.533-8.535,1.51v-17.801c26.48,3.22,47.065,25.822,47.065,53.157v10.864h-13.677V189.18  C283.703,175.476,272.554,164.327,258.85,164.327z M283.703,270.474v-45.417h13.677v33.168  C291.54,260.386,286.569,264.695,283.703,270.474z"
     id="path3"
     style="fill:#ffffff" /><g
     id="g5" /><g
     id="g7" /><g
     id="g9" /><g
     id="g11" /><g
     id="g13" /><g
     id="g15" /><g
     id="g17" /><g
     id="g19" /><g
     id="g21" /><g
     id="g23" /><g
     id="g25" /><g
     id="g27" /><g
     id="g29" /><g
     id="g31" /><g
     id="g33" /></svg>